<?xml version="1.0" encoding="UTF-8"?>
<svg width="21px" height="21px" viewBox="0 0 21 21" version="1.1" xmlns="http://www.w3.org/2000/svg" xmlns:xlink="http://www.w3.org/1999/xlink">
    <!-- Generator: Sketch 48.2 (47327) - http://www.bohemiancoding.com/sketch -->
    <title>apple</title>
    <desc>Created with Sketch.</desc>
    <defs></defs>
    <g id="Page-1" stroke="none" stroke-width="1" fill="none" fill-rule="evenodd">
        <g id="apple" fill="#5D5D5D" fill-rule="nonzero">
            <g id="apple-copy" transform="translate(2.000000, 1.000000)">
                <path d="M17,14.7012422 C16.6826992,15.6846791 16.1823403,16.6681159 15.4989232,17.6515528 C14.4493898,19.1935818 13.4039244,19.9645963 12.3625269,19.9645963 C11.963867,19.9645963 11.3943527,19.8387164 10.6539842,19.5869565 C9.95429529,19.3351967 9.3400335,19.2093168 8.81119885,19.2093168 C8.31490787,19.2093168 7.73725772,19.3391304 7.07824838,19.5987578 C6.41923905,19.8662526 5.88226849,20 5.46733668,20 C4.2306772,20 3.00622158,18.9811594 1.79396985,16.9434783 C0.59798995,14.8900621 0,12.9113872 0,11.0074534 C0,9.2136646 0.459679349,7.74244306 1.37903805,6.59378882 C2.29839675,5.46086957 3.45369706,4.89440994 4.84493898,4.89440994 C5.43072505,4.89440994 6.15075377,5.01242236 7.00502513,5.2484472 C7.85116056,5.48447205 8.41253888,5.60248447 8.68916009,5.60248447 C9.05527638,5.60248447 9.6369945,5.46873706 10.4343144,5.20124224 C11.264178,4.93374741 11.9679349,4.8 12.5455851,4.8 C13.5137593,4.8 14.3802345,5.05569358 15.1450108,5.56708075 C15.5680785,5.85031056 15.9911462,6.2436853 16.4142139,6.74720497 C15.7714764,7.27432712 15.3077291,7.73850932 15.022972,8.13975155 C14.4941374,8.87929607 14.22972,9.69358178 14.22972,10.5826087 C14.22972,11.5581781 14.5104092,12.4354037 15.0717875,13.2142857 C15.6331658,13.9931677 16.2759033,14.4888199 17,14.7012422 Z M12.1428571,0.497777778 C12.1428571,0.979753086 12.0257105,1.51703704 11.7914172,2.10962963 C11.5490448,2.70222222 11.1733676,3.24740741 10.6643855,3.74518519 C10.2281152,4.17185185 9.79184488,4.4562963 9.35557457,4.59851852 C9.05664861,4.6854321 8.63653645,4.75259259 8.0952381,4.8 C8.11947534,3.62271605 8.43455945,2.60740741 9.04049045,1.75407407 C9.63834236,0.908641975 10.6482274,0.323950617 12.0701454,0 C12.0782245,0.0237037037 12.0883234,0.0671604938 12.100442,0.13037037 C12.1125606,0.193580247 12.1226594,0.237037037 12.1307385,0.260740741 C12.1307385,0.292345679 12.1327583,0.331851852 12.1367978,0.379259259 C12.1408374,0.426666667 12.1428571,0.46617284 12.1428571,0.497777778 Z" id="Shape"></path>
            </g>
        </g>
    </g>
</svg>