<?xml version="1.0" encoding="UTF-8"?>
<svg width="17px" height="20px" viewBox="0 0 17 20" version="1.1" xmlns="http://www.w3.org/2000/svg" xmlns:xlink="http://www.w3.org/1999/xlink">
    <!-- Generator: Sketch 48.2 (47327) - http://www.bohemiancoding.com/sketch -->
    <title>pincho_peque</title>
    <desc>Created with Sketch.</desc>
    <defs></defs>
    <g id="Page-1" stroke="none" stroke-width="1" fill="none" fill-rule="evenodd" stroke-linejoin="round">
        <g id="pincho_peque" stroke="#FFFFFF">
            <g id="Group-19" transform="translate(1.000000, 1.000000)">
                <path d="M10,7.5 C10,8.8805 8.8805,10 7.5,10 C6.1195,10 5,8.8805 5,7.5 C5,6.1195 6.1195,5 7.5,5 C8.8805,5 10,6.1195 10,7.5 Z M7.5,0 C11.6410714,0 15,3.3410302 15,7.46003552 C15,8.54174067 14.7696429,9.56483126 14.3517857,10.4920071 C14.0089286,11.259325 13.5375,11.9573712 12.9696429,12.5595027 L7.5,18 L2.03035714,12.5595027 C1.4625,11.9573712 0.991071429,11.259325 0.648214286,10.4920071 C0.230357143,9.56483126 0,8.54174067 0,7.46003552 C0,3.3410302 3.35892857,0 7.5,0 Z" id="Stroke-13-Copy-3"></path>
            </g>
        </g>
    </g>
</svg>